<svg xmlns="http://www.w3.org/2000/svg" xmlns:xlink="http://www.w3.org/1999/xlink" xmlns:lucid="lucid" width="1760" height="1360"><g transform="translate(0 0)" lucid:page-tab-id="0_0"><path d="M928 223c17.67 0 32 17.9 32 40s-14.33 40-32 40h-96c-17.67 0-32-17.9-32-40s14.33-40 32-40z" stroke="#9e66e4" stroke-width="2" fill="#bb86fc"/><use xlink:href="#a" transform="matrix(1,0,0,1,805.0000000000005,228.00000000000017) translate(20.525 27.799999999999997)"/><use xlink:href="#b" transform="matrix(1,0,0,1,805.0000000000005,228.00000000000017) translate(89.475 27.799999999999997)"/><use xlink:href="#c" transform="matrix(1,0,0,1,805.0000000000005,228.00000000000017) translate(46.05 49.4)"/><path d="M160 425.92c0-3.3 2.67-6.33 5.95-6.74l148.1-18.44c3.28-.4 5.95 1.95 5.95 5.26v108c0 3.3-2.7 6-6 6H166c-3.3 0-6-2.7-6-6z" stroke="#9e66e4" stroke-width="2" fill="#bb86fc"/><use xlink:href="#d" transform="matrix(1,0,0,1,165,425) translate(51.05 48.6)"/><path d="M880 305.5v44.9c0 3.3-2.7 6-6 6H247.37c-3.3 0-6 2.68-6 6v25.76" stroke="#03dac6" stroke-width="3" fill="none"/><path d="M881.5 305.54h-3V304h3" fill="#03dac6"/><path d="M241.37 403.93l-4.63-14.27H246z" stroke="#03dac6" stroke-width="3" fill="#03dac6"/><path d="M453.15 41.94c0-3.32 2.68-6 6-6h840.75c3.3 0 6 2.68 6 6v98.44c0 3.3-2.7 6-6 6H459.15c-3.32 0-6-2.7-6-6z" stroke="#000" stroke-opacity="0" stroke-width="2" fill="#fff" fill-opacity="0"/><use xlink:href="#e" transform="matrix(1,0,0,1,457.14655278534315,39.93522395673161) translate(345.86864197530866 23.93777777777777)"/><use xlink:href="#f" transform="matrix(1,0,0,1,457.14655278534315,39.93522395673161) translate(434.51432098765434 23.93777777777777)"/><use xlink:href="#g" transform="matrix(1,0,0,1,457.14655278534315,39.93522395673161) translate(347.36185185185184 58.08444444444444)"/><use xlink:href="#h" transform="matrix(1,0,0,1,457.14655278534315,39.93522395673161) translate(440.4507407407407 58.08444444444444)"/><use xlink:href="#i" transform="matrix(1,0,0,1,457.14655278534315,39.93522395673161) translate(425.81 92.2311111111111)"/><path d="M709.94 110.4h346.88M709.98 110.4h-1.54M1056.8 110.4h1.53" stroke="#03dac6" stroke-width="3" fill="none"/><path d="M453.15 117.73c0-3.3 2.68-6 6-6h841.7c3.32 0 6 2.7 6 6v6.85c0 3.3-2.68 6-6 6h-841.7c-3.32 0-6-2.7-6-6z" stroke="#000" stroke-opacity="0" stroke-width="2" fill="#fff" fill-opacity="0"/><use xlink:href="#j" transform="matrix(1,0,0,1,457.1465527853436,115.73283593529744) translate(296.1852572016461 14.917037037037037)"/><use xlink:href="#k" transform="matrix(1,0,0,1,457.1465527853436,115.73283593529744) translate(358.98505144032924 14.917037037037037)"/><use xlink:href="#l" transform="matrix(1,0,0,1,457.1465527853436,115.73283593529744) translate(409.8452366255144 14.917037037037037)"/><use xlink:href="#m" transform="matrix(1,0,0,1,457.1465527853436,115.73283593529744) translate(422.2947222222222 14.917037037037037)"/><use xlink:href="#n" transform="matrix(1,0,0,1,457.1465527853436,115.73283593529744) translate(496.949146090535 14.917037037037037)"/><use xlink:href="#o" transform="matrix(1,0,0,1,457.1465527853436,115.73283593529744) translate(522.4429732510288 14.917037037037037)"/><path d="M480 425.92c0-3.3 2.67-6.33 5.95-6.74l148.1-18.44c3.28-.4 5.95 1.95 5.95 5.26v108c0 3.3-2.7 6-6 6H486c-3.3 0-6-2.7-6-6z" stroke="#9e66e4" stroke-width="2" fill="#bb86fc"/><use xlink:href="#p" transform="matrix(1,0,0,1,485,425) translate(28 48.6)"/><use xlink:href="#q" transform="matrix(1,0,0,1,485,425) translate(80 48.6)"/><path d="M800 425.92c0-3.3 2.67-6.33 5.95-6.74l148.1-18.44c3.28-.4 5.95 1.95 5.95 5.26v108c0 3.3-2.7 6-6 6H806c-3.3 0-6-2.7-6-6z" stroke="#9e66e4" stroke-width="2" fill="#bb86fc"/><use xlink:href="#r" transform="matrix(1,0,0,1,805.0000000000005,425) translate(46.575 48.6)"/><path d="M880 305.5v85.88" stroke="#03dac6" stroke-width="3" fill="none"/><path d="M881.5 305.54h-3V304h3" fill="#03dac6"/><path d="M880 407.15l-4.64-14.27h9.28z" stroke="#03dac6" stroke-width="3" fill="#03dac6"/><path d="M560 407.45v-44.97c0-3.32 2.7-6 6-6h308c3.3 0 6-2.7 6-6v-25.86" stroke="#03dac6" stroke-width="3" fill="none"/><path d="M561.5 408.77l-3 .37v-1.73h3" fill="#03dac6"/><path d="M880 308.85l4.64 14.27h-9.28z" stroke="#03dac6" stroke-width="3" fill="#03dac6"/><path d="M1120 425.92c0-3.3 2.67-6.33 5.95-6.74l148.1-18.44c3.28-.4 5.95 1.95 5.95 5.26v108c0 3.3-2.7 6-6 6h-148c-3.3 0-6-2.7-6-6z" stroke="#9e66e4" stroke-width="2" fill="#bb86fc"/><use xlink:href="#s" transform="matrix(1,0,0,1,1125.000000000001,425) translate(22.424999999999997 48.6)"/><path d="M1440 425.92c0-3.3 2.67-6.33 5.95-6.74l148.1-18.44c3.28-.4 5.95 1.95 5.95 5.26v108c0 3.3-2.7 6-6 6h-148c-3.3 0-6-2.7-6-6z" stroke="#9e66e4" stroke-width="2" fill="#bb86fc"/><use xlink:href="#t" transform="matrix(1,0,0,1,1445.0000000000014,425) translate(30.549999999999997 48.6)"/><use xlink:href="#u" transform="matrix(1,0,0,1,1445.0000000000014,425) translate(97.5 48.6)"/><path d="M1200 407.45v-44.97c0-3.32-2.7-6-6-6H886c-3.3 0-6-2.7-6-6v-25.86" stroke="#03dac6" stroke-width="3" fill="none"/><path d="M1201.5 408.77l-3 .37v-1.73h3" fill="#03dac6"/><path d="M880 308.85l4.64 14.27h-9.28z" stroke="#03dac6" stroke-width="3" fill="#03dac6"/><path d="M1520 407.45v-44.97c0-3.32-2.7-6-6-6H886c-3.3 0-6-2.7-6-6v-25.86" stroke="#03dac6" stroke-width="3" fill="none"/><path d="M1521.5 408.77l-3 .37v-1.73h3" fill="#03dac6"/><path d="M880 308.85l4.64 14.27h-9.28z" stroke="#03dac6" stroke-width="3" fill="#03dac6"/><path d="M509.18 645.3c1.56-2.93 5.5-5.3 8.82-5.3h84c3.3 0 7.26 2.37 8.82 5.3l26.36 49.4c1.56 2.93 1.56 7.67 0 10.6l-26.36 49.4c-1.56 2.93-5.5 5.3-8.82 5.3h-84c-3.3 0-7.26-2.37-8.82-5.3l-26.36-49.4c-1.56-2.93-1.56-7.67 0-10.6z" stroke="#9e66e4" stroke-width="2" fill="#bb86fc"/><use xlink:href="#v" transform="matrix(1,0,0,1,485,645) translate(2.5999999999999943 58.6)"/><use xlink:href="#w" transform="matrix(1,0,0,1,485,645) translate(76.5 58.6)"/><path d="M560 637.5v-95.88" stroke="#03dac6" stroke-width="3" fill="none"/><path d="M561.5 639h-3v-1.54h3" fill="#03dac6"/><path d="M560 525.85l4.64 14.27h-9.28z" stroke="#03dac6" stroke-width="3" fill="#03dac6"/><path d="M828.7 645.3c1.56-2.93 5.5-5.3 8.82-5.3h84c3.32 0 7.27 2.37 8.82 5.3l26.36 49.4c1.56 2.93 1.56 7.67 0 10.6l-26.36 49.4c-1.55 2.93-5.5 5.3-8.82 5.3h-84c-3.3 0-7.26-2.37-8.82-5.3l-26.36-49.4c-1.55-2.93-1.55-7.67 0-10.6z" stroke="#9e66e4" stroke-width="2" fill="#bb86fc"/><use xlink:href="#x" transform="matrix(1,0,0,1,804.5213070194006,645) translate(27.599999999999994 58.6)"/><use xlink:href="#y" transform="matrix(1,0,0,1,804.5213070194006,645) translate(65.55 58.6)"/><path d="M879.52 637.5v-95.88" stroke="#03dac6" stroke-width="3" fill="none"/><path d="M881.02 639h-3v-1.54h3" fill="#03dac6"/><path d="M879.5 525.85l4.65 14.27h-9.27z" stroke="#03dac6" stroke-width="3" fill="#03dac6"/><path d="M1149.18 641.86c1.56-2.93 5.5-5.3 8.82-5.3h84c3.3 0 7.26 2.37 8.82 5.3l26.36 49.4c1.56 2.93 1.56 7.67 0 10.6l-26.36 49.4c-1.56 2.93-5.5 5.3-8.82 5.3h-84c-3.3 0-7.26-2.37-8.82-5.3l-26.36-49.4c-1.56-2.93-1.56-7.67 0-10.6z" stroke="#9e66e4" stroke-width="2" fill="#bb86fc"/><use xlink:href="#z" transform="matrix(1,0,0,1,1125.000000000001,641.5639138175571) translate(41.074999999999996 58.6)"/><path d="M1200 634.06v-92.44" stroke="#03dac6" stroke-width="3" fill="none"/><path d="M1201.5 635.56h-3v-1.53h3" fill="#03dac6"/><path d="M1200 525.85l4.64 14.27h-9.28z" stroke="#03dac6" stroke-width="3" fill="#03dac6"/><path d="M1463.26 645.34c1.5-2.95 5.43-5.34 8.74-5.34h96c3.3 0 7.23 2.4 8.74 5.34l30.52 59.32c1.5 2.95 1.5 7.73 0 10.68l-30.52 59.32c-1.5 2.95-5.43 5.34-8.74 5.34h-96c-3.3 0-7.23-2.4-8.74-5.34l-30.52-59.32c-1.5-2.95-1.5-7.73 0-10.68z" stroke="#9e66e4" stroke-width="2" fill="#bb86fc"/><use xlink:href="#A" transform="matrix(1,0,0,1,1435,645) translate(31.075000000000003 57.8)"/><use xlink:href="#B" transform="matrix(1,0,0,1,1435,645) translate(98.025 57.8)"/><use xlink:href="#C" transform="matrix(1,0,0,1,1435,645) translate(10.599999999999994 79.4)"/><use xlink:href="#D" transform="matrix(1,0,0,1,1435,645) translate(93.45 79.4)"/><path d="M1520 637.5v-95.88" stroke="#03dac6" stroke-width="3" fill="none"/><path d="M1521.5 639h-3v-1.54h3" fill="#03dac6"/><path d="M1520 525.85l4.64 14.27h-9.28z" stroke="#03dac6" stroke-width="3" fill="#03dac6"/><path d="M879.52 762.5v95.88" stroke="#03dac6" stroke-width="3" fill="none"/><path d="M881.02 762.54h-3V761h3" fill="#03dac6"/><path d="M879.52 874.15l-4.63-14.27h9.26z" stroke="#03dac6" stroke-width="3" fill="#03dac6"/><path d="M799.52 886c0-3.3 2.7-6 6-6h148c3.32 0 6 2.7 6 6v148c0 3.3-2.68 6-6 6h-148c-3.3 0-6-2.7-6-6z" stroke="#9e66e4" stroke-width="2" fill="#bb86fc"/><g><use xlink:href="#E" transform="matrix(1,0,0,1,804.5213070194006,885) translate(11.099999999999994 67.8)"/><use xlink:href="#F" transform="matrix(1,0,0,1,804.5213070194006,885) translate(76 67.8)"/><use xlink:href="#y" transform="matrix(1,0,0,1,804.5213070194006,885) translate(46.575 89.4)"/></g><path d="M560 762.5V954c0 3.3 2.7 6 6 6h211.9" stroke="#03dac6" stroke-width="3" fill="none"/><path d="M561.5 762.54h-3V761h3" fill="#03dac6"/><path d="M793.67 960l-14.27 4.64v-9.28z" stroke="#03dac6" stroke-width="3" fill="#03dac6"/><path d="M799.52 1106c0-3.3 2.7-6 6-6h148c3.32 0 6 2.7 6 6v148c0 3.3-2.68 6-6 6h-148c-3.3 0-6-2.7-6-6z" stroke="#9e66e4" stroke-width="2" fill="#bb86fc"/><g><use xlink:href="#G" transform="matrix(1,0,0,1,804.5213070194006,1105) translate(11.624999999999993 67.8)"/><use xlink:href="#F" transform="matrix(1,0,0,1,804.5213070194006,1105) translate(75.475 67.8)"/><use xlink:href="#y" transform="matrix(1,0,0,1,804.5213070194006,1105) translate(46.575 89.4)"/></g><path d="M879.52 1042.5v35.88" stroke="#03dac6" stroke-width="3" fill="none"/><path d="M881.02 1042.54h-3V1041h3" fill="#03dac6"/><path d="M879.52 1094.15l-4.63-14.27h9.26z" stroke="#03dac6" stroke-width="3" fill="#03dac6"/><path d="M1200 759.06V1174c0 3.3-2.7 6-6 6H981.14" stroke="#03dac6" stroke-width="3" fill="none"/><path d="M1201.5 759.1h-3v-1.54h3" fill="#03dac6"/><path d="M965.38 1180l14.26-4.64v9.28z" stroke="#03dac6" stroke-width="3" fill="#03dac6"/><defs><path fill="#fff" d="M11 0l48-248h34L50-27h125l-5 27H11" id="H"/><path fill="#fff" d="M165-48c-4 18 1 34 23 27l-3 20c-29 8-62 0-52-35h-2C116-14 99 4 63 4 30 4 8-16 8-49c0-68 71-67 138-67 10-26 0-56-31-54-26 1-42 9-47 31l-32-5c8-67 160-71 144 15-5 28-9 54-15 81zM42-50c3 52 80 24 89-6 7-12 7-24 11-38-47 1-103-4-100 44" id="I"/><path fill="#fff" d="M67-158c22-48 132-52 116 29L158 0h-32l25-140c3-38-53-32-70-12C52-117 51-52 38 0H6l36-190h30" id="J"/><path fill="#fff" d="M133-28C103 26-5 8 13-77c13-62 24-115 90-117 29-1 46 15 56 35l19-102h32L160 0h-30zM45-64c-2 27 10 43 35 43 54-1 69-50 69-103 0-29-15-46-42-46-53-1-58 58-62 106" id="K"/><path fill="#fff" d="M50-231l6-30h32l-6 30H50zM6 0l37-190h31L37 0H6" id="L"/><path fill="#fff" d="M103-194c29 0 47 14 56 36 2-11 5-23 8-32h30L160-5C157 61 82 97 21 62 9 55 4 45 1 30l28-7c7 42 83 31 92-3 4-16 9-38 13-55-13 20-29 36-62 36-40 0-60-25-60-64 0-71 23-131 91-131zm4 24c-53 0-58 54-61 104-2 27 10 44 36 44 49 0 65-50 67-102 1-29-15-46-42-46" id="M"/><g id="a"><use transform="matrix(0.05,0,0,0.05,0,0)" xlink:href="#H"/><use transform="matrix(0.05,0,0,0.05,10,0)" xlink:href="#I"/><use transform="matrix(0.05,0,0,0.05,20,0)" xlink:href="#J"/><use transform="matrix(0.05,0,0,0.05,30,0)" xlink:href="#K"/><use transform="matrix(0.05,0,0,0.05,40,0)" xlink:href="#L"/><use transform="matrix(0.05,0,0,0.05,43.95,0)" xlink:href="#J"/><use transform="matrix(0.05,0,0,0.05,53.95,0)" xlink:href="#M"/></g><path fill="#fff" d="M67-162c32-53 139-36 121 50C175-51 163 2 97 4 68 4 52-11 42-31 38 6 28 39 22 75H-9l50-265h29c-1 10 0 20-3 28zm89 36c0-26-10-43-35-43-54 0-67 50-69 103-1 29 14 45 42 46 53 0 62-58 62-106" id="N"/><path fill="#fff" d="M111-194c62-3 86 47 72 106H45c-7 38 6 69 45 68 27-1 43-14 53-32l24 11C152-15 129 4 87 4 38 3 12-23 12-71c0-70 32-119 99-123zm44 81c14-66-71-72-95-28-4 8-8 17-11 28h106" id="O"/><g id="b"><use transform="matrix(0.05,0,0,0.05,0,0)" xlink:href="#N"/><use transform="matrix(0.05,0,0,0.05,10,0)" xlink:href="#I"/><use transform="matrix(0.05,0,0,0.05,20,0)" xlink:href="#M"/><use transform="matrix(0.05,0,0,0.05,30,0)" xlink:href="#O"/></g><path fill="#fff" d="M-7 75l65-336h72l-5 23H84L28 52h41l-4 23H-7" id="P"/><path fill="#fff" d="M179 0l23-115H67L45 0H11l48-248h34L72-143h135l21-105h32L212 0h-33" id="Q"/><path fill="#fff" d="M30-147c31-64 166-65 159 27C183-49 158 1 86 4 9 8 1-88 30-147zM88-20c53 0 68-48 68-100 0-31-11-51-44-50-52 1-68 46-68 97 0 32 13 53 44 53" id="R"/><path fill="#fff" d="M248-111c6-24 9-61-24-58-72 9-57 108-77 169h-31l26-142c3-37-50-30-64-10C52-115 50-51 37 0H6l36-190h30c-1 10-6 24-4 32 13-43 101-52 105 5 13-22 29-41 61-41 90 0 28 129 23 194h-31" id="S"/><path fill="#fff" d="M-30 75l5-23h40l57-290H31l4-23h72L42 75h-72" id="T"/><g id="c"><use transform="matrix(0.05,0,0,0.05,0,0)" xlink:href="#P"/><use transform="matrix(0.05,0,0,0.05,5,0)" xlink:href="#Q"/><use transform="matrix(0.05,0,0,0.05,17.950000000000003,0)" xlink:href="#R"/><use transform="matrix(0.05,0,0,0.05,27.950000000000003,0)" xlink:href="#S"/><use transform="matrix(0.05,0,0,0.05,42.900000000000006,0)" xlink:href="#O"/><use transform="matrix(0.05,0,0,0.05,52.900000000000006,0)" xlink:href="#T"/></g><g id="d"><use transform="matrix(0.05,0,0,0.05,0,0)" xlink:href="#Q"/><use transform="matrix(0.05,0,0,0.05,12.950000000000001,0)" xlink:href="#R"/><use transform="matrix(0.05,0,0,0.05,22.950000000000003,0)" xlink:href="#S"/><use transform="matrix(0.05,0,0,0.05,37.900000000000006,0)" xlink:href="#O"/></g><path fill="#fff" d="M182-130c37 4 62 22 62 59C244 23 116-4 24 0v-248c84 5 203-23 205 63 0 31-19 50-47 55zM76-148c40-3 101 13 101-30 0-44-60-28-101-31v61zm0 110c48-3 116 14 116-37 0-48-69-32-116-35v72" id="U"/><path fill="#fff" d="M25 0v-261h50V0H25" id="V"/><path fill="#fff" d="M110-194c64 0 96 36 96 99 0 64-35 99-97 99-61 0-95-36-95-99 0-62 34-99 96-99zm-1 164c35 0 45-28 45-65 0-40-10-65-43-65-34 0-45 26-45 65 0 36 10 65 43 65" id="W"/><path fill="#fff" d="M220-157c-53 9-28 100-34 157h-49v-107c1-27-5-49-29-50C55-147 81-57 75 0H25l-1-190h47c2 12-1 28 3 38 10-53 101-56 108 0 13-22 24-43 59-42 82 1 51 116 57 194h-49v-107c-1-25-5-48-29-50" id="X"/><g id="e"><use transform="matrix(0.0728395061728395,0,0,0.0728395061728395,0,0)" xlink:href="#U"/><use transform="matrix(0.0728395061728395,0,0,0.0728395061728395,18.86543209876543,0)" xlink:href="#V"/><use transform="matrix(0.0728395061728395,0,0,0.0728395061728395,26.14938271604938,0)" xlink:href="#W"/><use transform="matrix(0.0728395061728395,0,0,0.0728395061728395,42.10123456790124,0)" xlink:href="#W"/><use transform="matrix(0.0728395061728395,0,0,0.0728395061728395,58.05308641975308,0)" xlink:href="#X"/></g><path fill="#fff" d="M169-182c-1-43-94-46-97-3 18 66 151 10 154 114 3 95-165 93-204 36-6-8-10-19-12-30l50-8c3 46 112 56 116 5-17-69-150-10-154-114-4-87 153-88 188-35 5 8 8 18 10 28" id="Y"/><path fill="#fff" d="M133-34C117-15 103 5 69 4 32 3 11-16 11-54c-1-60 55-63 116-61 1-26-3-47-28-47-18 1-26 9-28 27l-52-2c7-38 36-58 82-57s74 22 75 68l1 82c-1 14 12 18 25 15v27c-30 8-71 5-69-32zm-48 3c29 0 43-24 42-57-32 0-66-3-65 30 0 17 8 27 23 27" id="Z"/><path fill="#fff" d="M135-194c87-1 58 113 63 194h-50c-7-57 23-157-34-157-59 0-34 97-39 157H25l-1-190h47c2 12-1 28 3 38 12-26 28-41 61-42" id="aa"/><g id="f"><use transform="matrix(0.0728395061728395,0,0,0.0728395061728395,0,0)" xlink:href="#Y"/><use transform="matrix(0.0728395061728395,0,0,0.0728395061728395,17.48148148148148,0)" xlink:href="#Z"/><use transform="matrix(0.0728395061728395,0,0,0.0728395061728395,32.04938271604938,0)" xlink:href="#V"/><use transform="matrix(0.0728395061728395,0,0,0.0728395061728395,39.333333333333336,0)" xlink:href="#W"/><use transform="matrix(0.0728395061728395,0,0,0.0728395061728395,55.28518518518518,0)" xlink:href="#aa"/></g><path fill="#fff" d="M25-224v-37h50v37H25zM25 0v-190h50V0H25" id="ab"/><path fill="#fff" d="M190-63c-7 42-38 67-86 67-59 0-84-38-90-98-12-110 154-137 174-36l-49 2c-2-19-15-32-35-32-30 0-35 28-38 64-6 74 65 87 74 30" id="ac"/><g id="g"><use transform="matrix(0.0728395061728395,0,0,0.0728395061728395,0,0)" xlink:href="#U"/><use transform="matrix(0.0728395061728395,0,0,0.0728395061728395,18.86543209876543,0)" xlink:href="#ab"/><use transform="matrix(0.0728395061728395,0,0,0.0728395061728395,26.14938271604938,0)" xlink:href="#Z"/><use transform="matrix(0.0728395061728395,0,0,0.0728395061728395,40.717283950617286,0)" xlink:href="#aa"/><use transform="matrix(0.0728395061728395,0,0,0.0728395061728395,56.66913580246913,0)" xlink:href="#ac"/><use transform="matrix(0.0728395061728395,0,0,0.0728395061728395,71.23703703703703,0)" xlink:href="#Z"/></g><path fill="#fff" d="M24 0v-248h52v208h133V0H24" id="ad"/><path fill="#fff" d="M195-6C206 82 75 100 31 46c-4-6-6-13-8-21l49-6c3 16 16 24 34 25 40 0 42-37 40-79-11 22-30 35-61 35-53 0-70-43-70-97 0-56 18-96 73-97 30 0 46 14 59 34l2-30h47zm-90-29c32 0 41-27 41-63 0-35-9-62-40-62-32 0-39 29-40 63 0 36 9 62 39 62" id="ae"/><g id="h"><use transform="matrix(0.0728395061728395,0,0,0.0728395061728395,0,0)" xlink:href="#ad"/><use transform="matrix(0.0728395061728395,0,0,0.0728395061728395,15.95185185185185,0)" xlink:href="#W"/><use transform="matrix(0.0728395061728395,0,0,0.0728395061728395,31.9037037037037,0)" xlink:href="#aa"/><use transform="matrix(0.0728395061728395,0,0,0.0728395061728395,47.855555555555554,0)" xlink:href="#ae"/></g><path fill="#fff" d="M240 0l2-218c-23 76-54 145-80 218h-23L58-218 59 0H30v-248h44l77 211c21-75 51-140 76-211h43V0h-30" id="af"/><path fill="#fff" d="M141-36C126-15 110 5 73 4 37 3 15-17 15-53c-1-64 63-63 125-63 3-35-9-54-41-54-24 1-41 7-42 31l-33-3c5-37 33-52 76-52 45 0 72 20 72 64v82c-1 20 7 32 28 27v20c-31 9-61-2-59-35zM48-53c0 20 12 33 32 33 41-3 63-29 60-74-43 2-92-5-92 41" id="ag"/><path fill="#fff" d="M59-47c-2 24 18 29 38 22v24C64 9 27 4 27-40v-127H5v-23h24l9-43h21v43h35v23H59v120" id="ah"/><path fill="#fff" d="M106-169C34-169 62-67 57 0H25v-261h32l-1 103c12-21 28-36 61-36 89 0 53 116 60 194h-32v-121c2-32-8-49-39-48" id="ai"/><path fill="#fff" d="M24-231v-30h32v30H24zM24 0v-190h32V0H24" id="aj"/><path fill="#fff" d="M100-194c63 0 86 42 84 106H49c0 40 14 67 53 68 26 1 43-12 49-29l28 8c-11 28-37 45-77 45C44 4 14-33 15-96c1-61 26-98 85-98zm52 81c6-60-76-77-97-28-3 7-6 17-6 28h103" id="ak"/><path fill="#fff" d="M84 4C-5 8 30-112 23-190h32v120c0 31 7 50 39 49 72-2 45-101 50-169h31l1 190h-30c-1-10 1-25-2-33-11 22-28 36-60 37" id="al"/><g id="j"><use transform="matrix(0.04248971193415638,0,0,0.04248971193415638,0,0)" xlink:href="#af"/><use transform="matrix(0.04248971193415638,0,0,0.04248971193415638,12.704423868312757,0)" xlink:href="#ag"/><use transform="matrix(0.04248971193415638,0,0,0.04248971193415638,21.20236625514403,0)" xlink:href="#ah"/><use transform="matrix(0.04248971193415638,0,0,0.04248971193415638,25.45133744855967,0)" xlink:href="#ah"/><use transform="matrix(0.04248971193415638,0,0,0.04248971193415638,29.700308641975308,0)" xlink:href="#ai"/><use transform="matrix(0.04248971193415638,0,0,0.04248971193415638,38.19825102880658,0)" xlink:href="#aj"/><use transform="matrix(0.04248971193415638,0,0,0.04248971193415638,41.55493827160493,0)" xlink:href="#ak"/><use transform="matrix(0.04248971193415638,0,0,0.04248971193415638,50.05288065843621,0)" xlink:href="#al"/></g><path fill="#fff" d="M63-220v92h138v28H63V0H30v-248h175v28H63" id="am"/><path fill="#fff" d="M24 0v-261h32V0H24" id="an"/><path fill="#fff" d="M143 0L79-87 56-68V0H24v-261h32v163l83-92h37l-77 82L181 0h-38" id="ao"/><path fill="#fff" d="M114-163C36-179 61-72 57 0H25l-1-190h30c1 12-1 29 2 39 6-27 23-49 58-41v29" id="ap"/><g id="k"><use transform="matrix(0.04248971193415638,0,0,0.04248971193415638,0,0)" xlink:href="#am"/><use transform="matrix(0.04248971193415638,0,0,0.04248971193415638,9.305246913580246,0)" xlink:href="#ak"/><use transform="matrix(0.04248971193415638,0,0,0.04248971193415638,17.80318930041152,0)" xlink:href="#an"/><use transform="matrix(0.04248971193415638,0,0,0.04248971193415638,21.159876543209876,0)" xlink:href="#ao"/><use transform="matrix(0.04248971193415638,0,0,0.04248971193415638,28.808024691358025,0)" xlink:href="#ak"/><use transform="matrix(0.04248971193415638,0,0,0.04248971193415638,37.3059670781893,0)" xlink:href="#ap"/></g><path fill="#fff" d="M32 76v-337h29V76H32" id="aq"/><use transform="matrix(0.04248971193415638,0,0,0.04248971193415638,0,0)" xlink:href="#aq" id="l"/><path fill="#fff" d="M190 0L58-211 59 0H30v-248h39L202-35l-2-213h31V0h-41" id="ar"/><path fill="#fff" d="M100-194c62-1 85 37 85 99 1 63-27 99-86 99S16-35 15-95c0-66 28-99 85-99zM99-20c44 1 53-31 53-75 0-43-8-75-51-75s-53 32-53 75 10 74 51 75" id="as"/><path fill="#fff" d="M108 0H70L1-190h34L89-25l56-165h34" id="at"/><path fill="#fff" d="M210-169c-67 3-38 105-44 169h-31v-121c0-29-5-50-35-48C34-165 62-65 56 0H25l-1-190h30c1 10-1 24 2 32 10-44 99-50 107 0 11-21 27-35 58-36 85-2 47 119 55 194h-31v-121c0-29-5-49-35-48" id="au"/><path fill="#fff" d="M115-194c53 0 69 39 70 98 0 66-23 100-70 100C84 3 66-7 56-30L54 0H23l1-261h32v101c10-23 28-34 59-34zm-8 174c40 0 45-34 45-75 0-40-5-75-45-74-42 0-51 32-51 76 0 43 10 73 51 73" id="av"/><g id="m"><use transform="matrix(0.04248971193415638,0,0,0.04248971193415638,0,0)" xlink:href="#ar"/><use transform="matrix(0.04248971193415638,0,0,0.04248971193415638,11.004835390946502,0)" xlink:href="#as"/><use transform="matrix(0.04248971193415638,0,0,0.04248971193415638,19.502777777777776,0)" xlink:href="#at"/><use transform="matrix(0.04248971193415638,0,0,0.04248971193415638,27.150925925925925,0)" xlink:href="#ak"/><use transform="matrix(0.04248971193415638,0,0,0.04248971193415638,35.6488683127572,0)" xlink:href="#au"/><use transform="matrix(0.04248971193415638,0,0,0.04248971193415638,48.35329218106995,0)" xlink:href="#av"/><use transform="matrix(0.04248971193415638,0,0,0.04248971193415638,56.851234567901244,0)" xlink:href="#ak"/><use transform="matrix(0.04248971193415638,0,0,0.04248971193415638,65.34917695473251,0)" xlink:href="#ap"/></g><path fill="#fff" d="M101-251c82-7 93 87 43 132L82-64C71-53 59-42 53-27h129V0H18c2-99 128-94 128-182 0-28-16-43-45-43s-46 15-49 41l-32-3c6-41 34-60 81-64" id="aw"/><path fill="#fff" d="M99-251c64 0 84 50 84 122C183-37 130 33 47-8c-14-7-20-23-25-40l30-5c6 39 69 39 84 7 9-19 16-44 16-74-10 22-31 35-62 35-49 0-73-33-73-83 0-54 28-83 82-83zm-1 141c31-1 51-18 51-49 0-36-14-67-51-67-34 0-49 23-49 58 0 34 15 58 49 58" id="ax"/><path fill="#fff" d="M68-38c1 34 0 65-14 84H32c9-13 17-26 17-46H33v-38h35" id="ay"/><g id="n"><use transform="matrix(0.04248971193415638,0,0,0.04248971193415638,0,0)" xlink:href="#aw"/><use transform="matrix(0.04248971193415638,0,0,0.04248971193415638,8.497942386831275,0)" xlink:href="#ax"/><use transform="matrix(0.04248971193415638,0,0,0.04248971193415638,16.99588477366255,0)" xlink:href="#ay"/></g><path fill="#fff" d="M101-251c68 0 85 55 85 127S166 4 100 4C33 4 14-52 14-124c0-73 17-127 87-127zm-1 229c47 0 54-49 54-102s-4-102-53-102c-51 0-55 48-55 102 0 53 5 102 54 102" id="az"/><path fill="#fff" d="M27 0v-27h64v-190l-56 39v-29l58-41h29v221h61V0H27" id="aA"/><g id="o"><use transform="matrix(0.04248971193415638,0,0,0.04248971193415638,0,0)" xlink:href="#aw"/><use transform="matrix(0.04248971193415638,0,0,0.04248971193415638,8.497942386831275,0)" xlink:href="#az"/><use transform="matrix(0.04248971193415638,0,0,0.04248971193415638,16.99588477366255,0)" xlink:href="#aw"/><use transform="matrix(0.04248971193415638,0,0,0.04248971193415638,25.493827160493822,0)" xlink:href="#aA"/></g><path fill="#fff" d="M187 0l-14-72H61L19 0h-37l149-248h38L221 0h-34zm-19-99l-22-123L76-99h92" id="aB"/><path fill="#fff" d="M68-162c25-46 127-43 121 31C183-60 169 1 98 4 69 5 53-11 43-31L36 0H5l52-261h31zm88 36c2-27-9-43-34-43-55 0-70 51-70 103 0 29 15 45 43 46 52 0 58-58 61-106" id="aC"/><path fill="#fff" d="M67 3c-93-2-31-127-26-193h32L48-50c-3 39 53 32 70 12 30-34 30-101 43-152h32L157 0h-30c1-10 6-24 4-33-14 20-29 37-64 36" id="aD"/><path fill="#fff" d="M51-54c-9 22 5 41 31 30L79-1C43 14 10-4 19-52l22-115H19l5-23h22l19-43h21l-9 43h35l-4 23H73" id="aE"/><g id="p"><use transform="matrix(0.05,0,0,0.05,0,0)" xlink:href="#aB"/><use transform="matrix(0.05,0,0,0.05,12,0)" xlink:href="#aC"/><use transform="matrix(0.05,0,0,0.05,22,0)" xlink:href="#R"/><use transform="matrix(0.05,0,0,0.05,32,0)" xlink:href="#aD"/><use transform="matrix(0.05,0,0,0.05,42,0)" xlink:href="#aE"/></g><path fill="#fff" d="M238-179c0 84-86 86-175 82L45 0H11l48-248c82 0 179-12 179 69zm-34 1c0-53-64-42-116-43l-19 98c63 0 135 9 135-55" id="aF"/><g id="q"><use transform="matrix(0.05,0,0,0.05,0,0)" xlink:href="#aF"/><use transform="matrix(0.05,0,0,0.05,12,0)" xlink:href="#I"/><use transform="matrix(0.05,0,0,0.05,22,0)" xlink:href="#M"/><use transform="matrix(0.05,0,0,0.05,32,0)" xlink:href="#O"/></g><path fill="#fff" d="M52-101C46-14 166-7 216-51l9-45h-74l6-28h105l-18 87C217-12 181 4 130 4 60 4 18-31 18-101c0-106 78-167 188-146 30 6 48 27 59 54l-34 9c-10-26-31-41-67-40-75 1-107 50-112 123" id="aG"/><path fill="#fff" d="M6 0l50-261h32L37 0H6" id="aH"/><path fill="#fff" d="M66-151c12-25 30-51 66-40l-6 26C45-176 58-65 38 0H6l36-190h30" id="aI"/><path fill="#fff" d="M198-190L69 30C53 58 25 83-20 72c4-11-1-27 19-22 33-1 43-29 59-52L20-190h32L79-34l84-156h35" id="aJ"/><g id="r"><use transform="matrix(0.05,0,0,0.05,0,0)" xlink:href="#aG"/><use transform="matrix(0.05,0,0,0.05,14,0)" xlink:href="#I"/><use transform="matrix(0.05,0,0,0.05,24,0)" xlink:href="#aH"/><use transform="matrix(0.05,0,0,0.05,27.950000000000003,0)" xlink:href="#aH"/><use transform="matrix(0.05,0,0,0.05,31.899999999999995,0)" xlink:href="#O"/><use transform="matrix(0.05,0,0,0.05,41.9,0)" xlink:href="#aI"/><use transform="matrix(0.05,0,0,0.05,47.85,0)" xlink:href="#aJ"/></g><path fill="#fff" d="M151-220L108 0H75l42-220H32l6-28h203l-5 28h-85" id="aK"/><path fill="#fff" d="M55-144c13 50 104 24 104 88C159 21 15 23 1-39l26-10c6 40 102 42 102-4-13-50-104-23-104-87 0-71 143-71 148-8l-29 4c-5-35-85-37-89 0" id="aL"/><g id="s"><use transform="matrix(0.05,0,0,0.05,0,0)" xlink:href="#aK"/><use transform="matrix(0.05,0,0,0.05,9.3,0)" xlink:href="#O"/><use transform="matrix(0.05,0,0,0.05,19.3,0)" xlink:href="#aL"/><use transform="matrix(0.05,0,0,0.05,28.3,0)" xlink:href="#aE"/><use transform="matrix(0.05,0,0,0.05,33.3,0)" xlink:href="#I"/><use transform="matrix(0.05,0,0,0.05,43.3,0)" xlink:href="#S"/><use transform="matrix(0.05,0,0,0.05,58.25,0)" xlink:href="#R"/><use transform="matrix(0.05,0,0,0.05,68.25,0)" xlink:href="#J"/><use transform="matrix(0.05,0,0,0.05,78.25,0)" xlink:href="#L"/><use transform="matrix(0.05,0,0,0.05,82.2,0)" xlink:href="#I"/><use transform="matrix(0.05,0,0,0.05,92.2,0)" xlink:href="#aH"/><use transform="matrix(0.05,0,0,0.05,96.15,0)" xlink:href="#aL"/></g><path fill="#fff" d="M125-24c46 0 70-25 89-51l25 16C214-24 183 4 123 4 8 4-5-146 60-208c32-50 158-61 191-5 5 7 9 14 11 22l-32 10c-9-28-33-43-69-43-74 0-108 51-108 125 0 46 24 75 72 75" id="aM"/><path fill="#fff" d="M44-68c0 29 11 47 38 47 30 0 42-19 51-41l28 9C148-21 126 4 82 4 31 4 10-29 12-85c3-77 74-140 146-93 12 8 15 23 18 40l-31 5c-1-22-13-36-36-36-52 0-65 49-65 101" id="aN"/><g id="t"><use transform="matrix(0.05,0,0,0.05,0,0)" xlink:href="#aM"/><use transform="matrix(0.05,0,0,0.05,12.950000000000001,0)" xlink:href="#R"/><use transform="matrix(0.05,0,0,0.05,22.950000000000003,0)" xlink:href="#J"/><use transform="matrix(0.05,0,0,0.05,32.95,0)" xlink:href="#aE"/><use transform="matrix(0.05,0,0,0.05,37.95,0)" xlink:href="#I"/><use transform="matrix(0.05,0,0,0.05,47.95,0)" xlink:href="#aN"/><use transform="matrix(0.05,0,0,0.05,56.95,0)" xlink:href="#aE"/></g><path fill="#fff" d="M62-99C39-31 123 0 170-40s38-139 58-208h34C234-144 253 4 115 4 49 4 18-43 31-112l26-136h34" id="aO"/><g id="u"><use transform="matrix(0.05,0,0,0.05,0,0)" xlink:href="#aO"/><use transform="matrix(0.05,0,0,0.05,12.950000000000001,0)" xlink:href="#aL"/></g><path fill="#fff" d="M185-189c-5-48-123-54-124 2 14 75 158 14 163 119 3 78-121 87-175 55-17-10-28-26-33-46l33-7c5 56 141 63 141-1 0-78-155-14-162-118-5-82 145-84 179-34 5 7 8 16 11 25" id="aP"/><path fill="#fff" d="M96-169c-40 0-48 33-48 73s9 75 48 75c24 0 41-14 43-38l32 2c-6 37-31 61-74 61-59 0-76-41-82-99-10-93 101-131 147-64 4 7 5 14 7 22l-32 3c-4-21-16-35-41-35" id="aQ"/><path fill="#fff" d="M135-143c-3-34-86-38-87 0 15 53 115 12 119 90S17 21 10-45l28-5c4 36 97 45 98 0-10-56-113-15-118-90-4-57 82-63 122-42 12 7 21 19 24 35" id="aR"/><g id="v"><use transform="matrix(0.05,0,0,0.05,0,0)" xlink:href="#aP"/><use transform="matrix(0.05,0,0,0.05,12,0)" xlink:href="#ak"/><use transform="matrix(0.05,0,0,0.05,22,0)" xlink:href="#ap"/><use transform="matrix(0.05,0,0,0.05,27.950000000000003,0)" xlink:href="#at"/><use transform="matrix(0.05,0,0,0.05,36.95,0)" xlink:href="#aj"/><use transform="matrix(0.05,0,0,0.05,40.900000000000006,0)" xlink:href="#aQ"/><use transform="matrix(0.05,0,0,0.05,49.900000000000006,0)" xlink:href="#ak"/><use transform="matrix(0.05,0,0,0.05,59.900000000000006,0)" xlink:href="#aR"/></g><path fill="#fff" d="M30-248c87 1 191-15 191 75 0 78-77 80-158 76V0H30v-248zm33 125c57 0 124 11 124-50 0-59-68-47-124-48v98" id="aS"/><path fill="#fff" d="M85-194c31 0 48 13 60 33l-1-100h32l1 261h-30c-2-10 0-23-3-31C134-8 116 4 85 4 32 4 16-35 15-94c0-66 23-100 70-100zm9 24c-40 0-46 34-46 75 0 40 6 74 45 74 42 0 51-32 51-76 0-42-9-74-50-73" id="aT"/><g id="w"><use transform="matrix(0.05,0,0,0.05,0,0)" xlink:href="#aS"/><use transform="matrix(0.05,0,0,0.05,12,0)" xlink:href="#ap"/><use transform="matrix(0.05,0,0,0.05,17.95,0)" xlink:href="#as"/><use transform="matrix(0.05,0,0,0.05,27.950000000000003,0)" xlink:href="#at"/><use transform="matrix(0.05,0,0,0.05,36.95,0)" xlink:href="#aj"/><use transform="matrix(0.05,0,0,0.05,40.900000000000006,0)" xlink:href="#aT"/><use transform="matrix(0.05,0,0,0.05,50.900000000000006,0)" xlink:href="#ak"/><use transform="matrix(0.05,0,0,0.05,60.900000000000006,0)" xlink:href="#aT"/></g><path fill="#fff" d="M30 0v-248h33v221h125V0H30" id="aU"/><g id="x"><use transform="matrix(0.05,0,0,0.05,0,0)" xlink:href="#aU"/><use transform="matrix(0.05,0,0,0.05,10,0)" xlink:href="#aj"/><use transform="matrix(0.05,0,0,0.05,13.949999999999998,0)" xlink:href="#at"/><use transform="matrix(0.05,0,0,0.05,22.95,0)" xlink:href="#ak"/></g><path fill="#fff" d="M143 4C61 4 22-44 18-125c-5-107 100-154 193-111 17 8 29 25 37 43l-32 9c-13-25-37-40-76-40-61 0-88 39-88 99 0 61 29 100 91 101 35 0 62-11 79-27v-45h-74v-28h105v86C228-13 192 4 143 4" id="aV"/><path fill="#fff" d="M179-190L93 31C79 59 56 82 12 73V49c39 6 53-20 64-50L1-190h34L92-34l54-156h33" id="aW"/><g id="y"><use transform="matrix(0.05,0,0,0.05,0,0)" xlink:href="#aV"/><use transform="matrix(0.05,0,0,0.05,14,0)" xlink:href="#ag"/><use transform="matrix(0.05,0,0,0.05,24,0)" xlink:href="#an"/><use transform="matrix(0.05,0,0,0.05,27.950000000000003,0)" xlink:href="#an"/><use transform="matrix(0.05,0,0,0.05,31.899999999999995,0)" xlink:href="#ak"/><use transform="matrix(0.05,0,0,0.05,41.9,0)" xlink:href="#ap"/><use transform="matrix(0.05,0,0,0.05,47.85,0)" xlink:href="#aW"/></g><path fill="#fff" d="M233-177c-1 41-23 64-60 70L243 0h-38l-65-103H63V0H30v-248c88 3 205-21 203 71zM63-129c60-2 137 13 137-47 0-61-80-42-137-45v92" id="aX"/><path fill="#fff" d="M206 0h-36l-40-164L89 0H53L-1-190h32L70-26l43-164h34l41 164 42-164h31" id="aY"/><g id="z"><use transform="matrix(0.05,0,0,0.05,0,0)" xlink:href="#aX"/><use transform="matrix(0.05,0,0,0.05,12.950000000000001,0)" xlink:href="#ak"/><use transform="matrix(0.05,0,0,0.05,22.950000000000003,0)" xlink:href="#at"/><use transform="matrix(0.05,0,0,0.05,31.950000000000003,0)" xlink:href="#aj"/><use transform="matrix(0.05,0,0,0.05,35.900000000000006,0)" xlink:href="#ak"/><use transform="matrix(0.05,0,0,0.05,45.900000000000006,0)" xlink:href="#aY"/><use transform="matrix(0.05,0,0,0.05,58.85,0)" xlink:href="#aR"/></g><path fill="#fff" d="M212-179c-10-28-35-45-73-45-59 0-87 40-87 99 0 60 29 101 89 101 43 0 62-24 78-52l27 14C228-24 195 4 139 4 59 4 22-46 18-125c-6-104 99-153 187-111 19 9 31 26 39 46" id="aZ"/><path fill="#fff" d="M117-194c89-4 53 116 60 194h-32v-121c0-31-8-49-39-48C34-167 62-67 57 0H25l-1-190h30c1 10-1 24 2 32 11-22 29-35 61-36" id="ba"/><g id="A"><use transform="matrix(0.05,0,0,0.05,0,0)" xlink:href="#aZ"/><use transform="matrix(0.05,0,0,0.05,12.950000000000001,0)" xlink:href="#as"/><use transform="matrix(0.05,0,0,0.05,22.950000000000003,0)" xlink:href="#ba"/><use transform="matrix(0.05,0,0,0.05,32.95,0)" xlink:href="#ah"/><use transform="matrix(0.05,0,0,0.05,37.95,0)" xlink:href="#ag"/><use transform="matrix(0.05,0,0,0.05,47.95,0)" xlink:href="#aQ"/><use transform="matrix(0.05,0,0,0.05,56.95,0)" xlink:href="#ah"/></g><path fill="#fff" d="M101-234c-31-9-42 10-38 44h38v23H63V0H32v-167H5v-23h27c-7-52 17-82 69-68v24" id="bb"/><path fill="#fff" d="M0 4l72-265h28L28 4H0" id="bc"/><g id="B"><use transform="matrix(0.05,0,0,0.05,0,0)" xlink:href="#bb"/><use transform="matrix(0.05,0,0,0.05,5,0)" xlink:href="#as"/><use transform="matrix(0.05,0,0,0.05,15,0)" xlink:href="#ap"/><use transform="matrix(0.05,0,0,0.05,20.95,0)" xlink:href="#au"/><use transform="matrix(0.05,0,0,0.05,35.9,0)" xlink:href="#bc"/></g><g id="C"><use transform="matrix(0.05,0,0,0.05,0,0)" xlink:href="#ar"/><use transform="matrix(0.05,0,0,0.05,12.950000000000001,0)" xlink:href="#al"/><use transform="matrix(0.05,0,0,0.05,22.950000000000003,0)" xlink:href="#au"/><use transform="matrix(0.05,0,0,0.05,37.900000000000006,0)" xlink:href="#av"/><use transform="matrix(0.05,0,0,0.05,47.900000000000006,0)" xlink:href="#ak"/><use transform="matrix(0.05,0,0,0.05,57.900000000000006,0)" xlink:href="#ap"/><use transform="matrix(0.05,0,0,0.05,63.85,0)" xlink:href="#aR"/><use transform="matrix(0.05,0,0,0.05,72.85000000000001,0)" xlink:href="#bc"/></g><path fill="#fff" d="M205 0l-28-72H64L36 0H1l101-248h38L239 0h-34zm-38-99l-47-123c-12 45-31 82-46 123h93" id="bd"/><g id="D"><use transform="matrix(0.05,0,0,0.05,0,0)" xlink:href="#bd"/><use transform="matrix(0.05,0,0,0.05,12,0)" xlink:href="#aT"/><use transform="matrix(0.05,0,0,0.05,22,0)" xlink:href="#aT"/><use transform="matrix(0.05,0,0,0.05,32,0)" xlink:href="#ap"/><use transform="matrix(0.05,0,0,0.05,37.95,0)" xlink:href="#ak"/><use transform="matrix(0.05,0,0,0.05,47.95,0)" xlink:href="#aR"/><use transform="matrix(0.05,0,0,0.05,56.95,0)" xlink:href="#aR"/></g><g id="E"><use transform="matrix(0.05,0,0,0.05,0,0)" xlink:href="#aP"/><use transform="matrix(0.05,0,0,0.05,12,0)" xlink:href="#ak"/><use transform="matrix(0.05,0,0,0.05,22,0)" xlink:href="#ap"/><use transform="matrix(0.05,0,0,0.05,27.950000000000003,0)" xlink:href="#at"/><use transform="matrix(0.05,0,0,0.05,36.95,0)" xlink:href="#aj"/><use transform="matrix(0.05,0,0,0.05,40.900000000000006,0)" xlink:href="#aQ"/><use transform="matrix(0.05,0,0,0.05,49.900000000000006,0)" xlink:href="#ak"/></g><path fill="#fff" d="M115-194c55 1 70 41 70 98S169 2 115 4C84 4 66-9 55-30l1 105H24l-1-265h31l2 30c10-21 28-34 59-34zm-8 174c40 0 45-34 45-75s-6-73-45-74c-42 0-51 32-51 76 0 43 10 73 51 73" id="be"/><g id="F"><use transform="matrix(0.05,0,0,0.05,0,0)" xlink:href="#aP"/><use transform="matrix(0.05,0,0,0.05,12,0)" xlink:href="#be"/><use transform="matrix(0.05,0,0,0.05,22,0)" xlink:href="#ak"/><use transform="matrix(0.05,0,0,0.05,32,0)" xlink:href="#aQ"/><use transform="matrix(0.05,0,0,0.05,41,0)" xlink:href="#aj"/><use transform="matrix(0.05,0,0,0.05,44.95,0)" xlink:href="#bb"/><use transform="matrix(0.05,0,0,0.05,49.95,0)" xlink:href="#aj"/><use transform="matrix(0.05,0,0,0.05,53.900000000000006,0)" xlink:href="#aQ"/></g><g id="G"><use transform="matrix(0.05,0,0,0.05,0,0)" xlink:href="#aX"/><use transform="matrix(0.05,0,0,0.05,12.950000000000001,0)" xlink:href="#ak"/><use transform="matrix(0.05,0,0,0.05,22.950000000000003,0)" xlink:href="#at"/><use transform="matrix(0.05,0,0,0.05,31.950000000000003,0)" xlink:href="#aj"/><use transform="matrix(0.05,0,0,0.05,35.900000000000006,0)" xlink:href="#ak"/><use transform="matrix(0.05,0,0,0.05,45.900000000000006,0)" xlink:href="#aY"/></g></defs></g></svg>